<svg xmlns="http://www.w3.org/2000/svg" width="800" height="800"  viewBox="0 0 24 24">
	<path d="M12 9a1 1 0 0 0-1 1v5.268A2 2 0 0 0 12 19a2 2 0 0 0 1-3.732V10a1 1 0 0 0-1-1ZM11 6a1 1 0 1 1 2 0 1 1 0 0 1-2 0ZM16 7a1 1 0 1 0 0 2 1 1 0 0 0 0-2ZM6 13a1 1 0 1 1 0-2 1 1 0 0 1 0 2ZM7 8a1 1 0 1 0 2 0 1 1 0 0 0-2 0ZM18 13a1 1 0 1 1 0-2 1 1 0 0 1 0 2Z"/>
	<path fill-rule="evenodd" d="M12 23c6.075 0 11-4.925 11-11S18.075 1 12 1 1 5.925 1 12s4.925 11 11 11Zm0-2.007a8.993 8.993 0 1 1 0-17.986 8.993 8.993 0 0 1 0 17.986Z" clip-rule="evenodd"/>
</svg>