<svg xmlns="http://www.w3.org/2000/svg" xml:space="preserve"  version="1.1" viewBox="0 0 512 512" fill="#fff">
	<path d="M0 254.042h512v32H0zM227.984 335.426h-27.406c-1.297 0-2.156.859-2.156 2.156v91.492c0 17.485-9.719 27.406-24.39 27.406-14.891 0-24.594-9.922-24.594-27.406v-91.492c0-1.297-.874-2.156-2.156-2.156h-27.406c-1.297 0-2.156.859-2.156 2.156v90.625c0 36.477 23.297 56.329 56.313 56.329 32.797 0 56.109-19.852 56.109-56.329v-90.625c-.002-1.297-.861-2.156-2.158-2.156zM392.453 335.426h-27.844c-1.515 0-2.374.648-2.812 2.156l-28.485 96.242h-.641l-29.343-96.242c-.438-1.508-1.297-2.156-2.813-2.156h-28.046c-1.516 0-2.375.859-1.938 2.375l46.609 142.203c.422 1.297 1.282 2.156 2.797 2.156h25.032c1.297 0 2.156-.859 2.594-2.156l46.609-142.203c.437-1.516-.438-2.375-1.719-2.375zM355.523 145.91l22.758 25.391 39.328-95.915-99.64 28.633 20.679 23.063-93.148 75.632L29.625 27.465 13.718 47.058 245.5 235.23z" />
</svg>